# xmcd
#
# Track frame offsets:
#	150
#	15991
#	31428
#	44807
#	60234
#	73949
#	89167
#	101364
#	117093
#	132734
#	147867
#	162696
#	177888
#
# Disc length: 2634 seconds
#
# Revision: 1
# Processed by: cddbd v1.5.2PL0 Copyright (c) Steve Scherf et al.
# Submitted via: audiograbber 1.83.01
#
DISCID=bd0a480d
DTITLE=Jouni Apajainen - Jouni Apajainen
DYEAR=1999
DGENRE=Pop
TTITLE0=Eri Vuoroon
TTITLE1=Koputa Kolme Kertaa
TTITLE2=Sävelet Nää
TTITLE3=Valoisat Yöt
TTITLE4=Kosketit Mua Syvemmältä
TTITLE5=Huomisiin
TTITLE6=Timantti
TTITLE7=Lupaan Aamuun Sut Kantaa
TTITLE8=Suvi Suloinen
TTITLE9=Eksyneet
TTITLE10=Kun Sut Tunnen Tässä
TTITLE11=Aurinkoon Syntynyt
TTITLE12=Mun Sielussa Pauhaa
EXTD=TR.
EXTT0=
EXTT1=
EXTT2=
EXTT3=
EXTT4=
EXTT5=
EXTT6=
EXTT7=
EXTT8=
EXTT9=
EXTT10=
EXTT11=
EXTT12=
PLAYORDER=
